<?xml version="1.0" standalone="no"?>
<!DOCTYPE svg PUBLIC "-//W3C//DTD SVG 1.1//EN" "http://www.w3.org/Graphics/SVG/1.1/DTD/svg11.dtd" >
<svg xmlns="http://www.w3.org/2000/svg">
<metadata></metadata>
<defs>
<font id="solomon_sans_bookregular" horiz-adv-x="1155" >
<font-face units-per-em="2048" ascent="1536" descent="-512" />
<missing-glyph horiz-adv-x="526" />
<glyph unicode="&#xfb01;" horiz-adv-x="1075" d="M121 944v94h102v107q0 147 89 222t231 69v-90q-115 0 -164 -51t-49 -150v-107h551v-1038h-109v944h-442v-944h-107v944h-102zM770 1274v158h113v-158h-113z" />
<glyph unicode="&#xfb02;" horiz-adv-x="1110" d="M121 944v94h102v107q0 147 89 222t231 69v-90q-115 0 -164 -51t-49 -150v-107h205v-94h-205v-944h-107v944h-102zM760 289v1145h108v-1145q0 -99 36.5 -148.5t129.5 -48.5v-94q-133 -6 -203.5 67.5t-70.5 223.5z" />
<glyph unicode="&#xfb03;" horiz-adv-x="1699" d="M125 944v94h102v107q0 147 89 222t231 69v-90q-115 0 -164 -51t-49 -150v-107h516v107q0 147 88.5 222t230.5 69v-90q-115 0 -164 -51t-49 -150v-107h549v-1038h-108v944h-441v-944h-106v944h-516v-944h-107v944h-102zM1395 1274v158h112v-158h-112z" />
<glyph unicode="&#xfb04;" horiz-adv-x="1748" d="M125 944v94h102v107q0 147 89 222t231 69v-90q-115 0 -164 -51t-49 -150v-107h495v107q0 147 89 222t231 69v-90q-115 0 -164 -51t-49 -150v-107h205v-94h-205v-944h-107v944h-495v-944h-107v944h-102zM1397 289v1145h108v-1145q0 -99 36.5 -148.5t129.5 -48.5v-94 q-133 -6 -203.5 67.5t-70.5 223.5z" />
<glyph horiz-adv-x="2048" />
<glyph horiz-adv-x="2048" />
<glyph unicode="&#xd;" horiz-adv-x="2048" />
<glyph unicode=" "  horiz-adv-x="526" />
<glyph unicode="&#x09;" horiz-adv-x="526" />
<glyph unicode="&#xa0;" horiz-adv-x="526" />
<glyph unicode="!" horiz-adv-x="661" d="M270 0v160h123v-160h-123zM279 311v1125h108l-2 -1125h-106z" />
<glyph unicode="&#x22;" horiz-adv-x="675" d="M170 1059v377h102v-377h-102zM406 1059v377h100v-377h-100z" />
<glyph unicode="#" horiz-adv-x="1234" d="M143 449v92h215l54 356h-199v98h213l72 439h94l-72 -439h324l71 439h91l-72 -439h182v-98h-196l-56 -356h180v-92h-194l-78 -449h-88l78 449h-324l-78 -449h-94l78 449h-201zM453 541h323l53 356h-323z" />
<glyph unicode="$" horiz-adv-x="1159" d="M143 252l88 45q47 -100 139.5 -162.5t202.5 -62.5q140 -2 228.5 71.5t95.5 198.5q5 65 -15.5 118.5t-52 88t-81.5 62.5t-91 42.5t-94 28.5q-62 18 -111 37t-104.5 53.5t-91.5 76t-59 104.5t-21 139q3 104 53 185.5t126.5 127t170.5 59.5v183h97v-181q121 -18 214.5 -81 t137.5 -166l-82 -41q-46 84 -133 134t-178 52q-115 0 -200.5 -74t-94.5 -205q-3 -58 16.5 -106t50 -79t75.5 -56.5t82.5 -38.5t82.5 -25q50 -13 90 -25.5t85.5 -33t79.5 -44t66.5 -57.5t52.5 -74t31.5 -93.5t8.5 -116.5q-4 -80 -37 -145.5t-87.5 -109t-120 -70t-140.5 -36.5 v-184h-97v182q-126 18 -229.5 89.5t-153.5 189.5z" />
<glyph unicode="%" horiz-adv-x="1720" d="M131 1110q0 136 96 233t230 97t229.5 -97t95.5 -233q0 -135 -95.5 -231.5t-229.5 -96.5t-230 96.5t-96 231.5zM225 1110q0 -97 67 -165t165 -68q99 0 165 67.5t66 165.5q0 100 -66 168t-165 68q-98 0 -165 -68t-67 -168zM319 -55q148 252 459.5 766t470.5 788h119 q-149 -254 -462 -767.5t-472 -786.5h-115zM926 324q0 135 96 231t231 96q134 0 230 -96t96 -231t-96 -231.5t-230 -96.5q-135 0 -231 96.5t-96 231.5zM1024 324q0 -99 65.5 -165.5t163.5 -66.5q97 0 161.5 67t64.5 165t-65 166.5t-161 68.5q-97 0 -163 -68.5t-66 -166.5z " />
<glyph unicode="&#x26;" horiz-adv-x="1341" d="M144.5 427q14.5 111 91 205t208.5 171q-71 84 -113 161t-42 158q0 143 99 228.5t235 85.5q121 0 211 -83t90 -210q0 -54 -18.5 -103t-46.5 -85t-72 -72t-82.5 -60t-90.5 -53l336 -358l125 198q22 -11 47.5 -26t40.5 -23l-143 -219l268 -309h-137l-193 219 q-96 -123 -190 -185.5t-215 -62.5q-116 0 -207.5 50t-146.5 145q-69 117 -54.5 228zM252 379q3 -58 35 -115q39 -71 116 -113t166 -42q49 0 96 18.5t87.5 53t72.5 70t66 81.5l-373 399q-55 -29 -103 -65t-86.5 -82.5t-59 -96.5t-17.5 -108zM395 1124q0 -107 154 -284 q51 26 90.5 51.5t84.5 63.5t70 84.5t25 97.5q0 82 -60 141t-143 59q-88 0 -154.5 -63.5t-66.5 -149.5z" />
<glyph unicode="'" horiz-adv-x="434" d="M168 1049v387h96v-387h-96z" />
<glyph unicode="(" horiz-adv-x="806" d="M184 721q0 299 151 570.5t404 418.5v-119q-143 -91 -246 -235t-152.5 -306t-49.5 -329q0 -251 119 -491.5t329 -374.5v-121q-167 97 -293.5 254.5t-194 347t-67.5 385.5z" />
<glyph unicode=")" horiz-adv-x="804" d="M59 -145q210 134 329.5 374.5t119.5 491.5q0 167 -49.5 329t-153 306t-246.5 235v119q253 -147 404 -418.5t151 -570.5q0 -196 -67.5 -385.5t-194 -347t-293.5 -254.5v121z" />
<glyph unicode="*" horiz-adv-x="970" d="M119 1151l28 84l289 -102l-2 309h86l-6 -309l293 100l29 -82l-299 -88l194 -258l-74 -49l-184 264l-182 -266l-70 51l187 258z" />
<glyph unicode="+" horiz-adv-x="1343" d="M199 629v96h434v428h98v-428h414v-96h-414v-436h-98v436h-434z" />
<glyph unicode="," horiz-adv-x="485" d="M74 -266l121 401h124l-163 -401h-82z" />
<glyph unicode="-" horiz-adv-x="946" d="M225 588v102h500v-102h-500z" />
<glyph unicode="." horiz-adv-x="548" d="M197 -2v160h129v-160h-129z" />
<glyph unicode="/" horiz-adv-x="849" d="M102 -113q97 285 288.5 842.5t289.5 843.5h104l-575 -1686h-107z" />
<glyph unicode="0" horiz-adv-x="1259" d="M168 389v653q0 97 38.5 176t103 128.5t144.5 76t167 27.5q90 2 173.5 -23.5t150.5 -75t107 -129.5t40 -180v-653q1 -97 -36.5 -176t-102 -129t-147.5 -77t-175 -27q-125 -2 -229.5 43.5t-170.5 141t-63 224.5zM272 389q0 -99 54 -171.5t134 -106t171 -33.5 q90 0 168.5 33.5t132 106t53.5 171.5v653q0 97 -55.5 170t-136.5 107t-170 33q-90 -1 -168.5 -36t-130.5 -107t-52 -167v-653z" />
<glyph unicode="1" horiz-adv-x="675" d="M137 1335v99h293v-1434h-104v1335h-189z" />
<glyph unicode="2" horiz-adv-x="1173" d="M145 98l637 705q57 63 89.5 131.5t31.5 128.5q0 124 -84 206.5t-229 86.5h2q-110 4 -201.5 -54.5t-140.5 -154.5l-88 43q56 127 172.5 194.5t257.5 69.5q193 -1 305 -111.5t115 -277.5q0 -165 -156 -338l-567 -627h758v-100h-854q-7 17 -24.5 49t-23.5 49z" />
<glyph unicode="3" horiz-adv-x="1153" d="M125 242l88 47q115 -211 346 -211q79 0 153.5 39t125.5 116t51 173q0 134 -92 225.5t-215 91.5h-88v102h88q113 0 188.5 66.5t75.5 185.5q0 81 -35.5 143t-90.5 94.5t-124 42.5t-134.5 -5.5t-123.5 -59t-90 -108.5l-80 43q40 86 116 143t162.5 76t177.5 5t164.5 -58.5 t120.5 -127t47 -188.5q0 -89 -51 -177.5t-133 -125.5q109 -59 165 -154.5t56 -216.5q-1 -130 -66 -230t-163.5 -150t-210.5 -50q-129 0 -248 71.5t-180 197.5z" />
<glyph unicode="4" horiz-adv-x="1118" d="M82 418l672 1016h133v-1022h127v-99h-127v-313h-105v313h-610zM195 412h587l2 882z" />
<glyph unicode="5" horiz-adv-x="1200" d="M139 242l82 53q62 -103 159.5 -160t207.5 -57q86 0 157.5 35.5t115.5 92.5t68 124t23 135q0 66 -23 129.5t-66 116t-113 84.5t-156 32q-98 0 -180 -22t-170 -72q-33 0 -49 -2l104 703h682v-95h-598l-74 -473q157 62 289 62q112 -1 202 -42t145 -107.5t84.5 -147.5 t29.5 -168q0 -89 -31 -174.5t-88.5 -155.5t-150 -113t-205.5 -43q-134 0 -256.5 71t-188.5 194z" />
<glyph unicode="6" horiz-adv-x="1243" d="M160 457q0 158 78 280l434 697h123l-365 -564q99 60 201 60q117 0 210 -41.5t148.5 -110.5t84 -151t28.5 -170q0 -89 -30.5 -172.5t-87.5 -152t-149 -109.5t-204 -41q-90 0 -167.5 27t-132.5 73t-94 107t-58 129t-19 139zM266 459q0 -67 24 -133.5t68.5 -122t115.5 -89.5 t157 -34q70 0 130.5 22.5t103 60.5t73.5 87t45.5 102.5t13.5 106.5q0 66 -24.5 130.5t-69 118.5t-115.5 87.5t-157 33.5q-149 0 -256 -109.5t-109 -260.5z" />
<glyph unicode="7" horiz-adv-x="1034" d="M92 1335v99h815l56 -82l-703 -1352h-115l699 1335h-752z" />
<glyph unicode="8" horiz-adv-x="1210" d="M158 408q-1 113 60 210.5t163 161.5q-79 57 -122.5 136.5t-43.5 164.5q0 114 56.5 201t143 129.5t185.5 42.5q74 0 142.5 -25.5t123 -71.5t87 -118t32.5 -158q0 -82 -43 -163.5t-121 -137.5q109 -67 166.5 -162t56.5 -210q-1 -99 -39 -181.5t-100.5 -135.5t-141 -82 t-163.5 -29q-84 0 -162.5 29t-140.5 82t-100 135.5t-39 181.5zM266 406q0 -128 90 -228.5t244 -99.5q80 1 145.5 31t106.5 78t63.5 106t22.5 117t-22.5 115t-63.5 102t-106.5 74t-145.5 28q-103 0 -181.5 -49t-115.5 -121t-37 -153zM317 1085q0 -101 78.5 -183.5 t204.5 -82.5q127 0 203 81t76 183q0 65 -30.5 125.5t-96.5 103t-152 42.5q-127 0 -205 -83.5t-78 -185.5z" />
<glyph unicode="9" horiz-adv-x="1247" d="M145 977q0 89 30.5 172.5t87.5 152t149 109.5t204 41q90 0 167.5 -27t132.5 -73t94 -107t58 -129t19 -139q0 -160 -77 -281l-435 -696h-122l364 563q-91 -55 -201 -55q-117 0 -210 41t-148.5 109t-84 149.5t-28.5 169.5zM250 975q0 -74 21 -138.5t63 -117.5t114.5 -84 t167.5 -31q149 0 256 110t109 261q0 67 -24 133.5t-68.5 122t-115.5 89.5t-157 34q-70 0 -130.5 -22.5t-103 -60.5t-73.5 -87t-45.5 -102.5t-13.5 -106.5z" />
<glyph unicode=":" horiz-adv-x="626" d="M242 -2v164h131v-164h-131zM242 834v163h133v-163h-133z" />
<glyph unicode=";" horiz-adv-x="628" d="M131 -266l121 401h125l-164 -401h-82zM242 834v163h133v-163h-133z" />
<glyph unicode="&#x3c;" horiz-adv-x="1042" d="M115 535v102l768 407v-118l-662 -340l662 -336v-117z" />
<glyph unicode="=" horiz-adv-x="1308" d="M238 313v105h833v-105h-833zM238 719v102h833v-102h-833z" />
<glyph unicode="&#x3e;" horiz-adv-x="1040" d="M162 133v117l661 336l-661 340v118l768 -407v-102z" />
<glyph unicode="?" horiz-adv-x="1093" d="M90 1272l6 8q64 82 165 126t212 44q67 0 130.5 -17t119.5 -51t98 -82t66.5 -114.5t23.5 -143.5q-1 -174 -112.5 -286.5t-296.5 -145.5l-13 -293h-83l-13 371q81 5 154.5 30.5t133 68.5t93.5 109.5t33 147.5q-1 75 -31 135.5t-78.5 96.5t-107 55t-121.5 19 q-82 0 -164.5 -36t-138.5 -95q-18 15 -41 29.5t-35 23.5zM395 2v150h117v-150h-117z" />
<glyph unicode="@" horiz-adv-x="1665" d="M156 444q2 111 34 218.5t94 203t147.5 168.5t202.5 115.5t249 42.5q185 0 335 -76.5t235 -210.5t85 -297q0 -116 -39.5 -221.5t-102.5 -178.5t-143.5 -116t-162.5 -43q-43 0 -75.5 42t-25.5 118q-55 -86 -127 -123t-141 -37q-104 0 -178 86t-74 195q0 82 18.5 161 t56.5 149t90 123.5t124.5 84.5t154.5 31q27 0 58 -9.5t62.5 -29.5t54.5 -58t28 -88q0 1 16.5 51t24.5 74q23 -1 49.5 -1t48.5 -1l-163 -534v-2q-9 -27 -13.5 -46.5t-4 -42t15.5 -35t45 -12.5q81 0 153 72t112 178.5t40 212.5q0 152 -97 277l9 -11q-81 102 -205 160t-260 58 q-113 0 -213 -37t-174 -101t-129 -147t-83 -176.5t-30 -188.5q-2 -128 30.5 -231.5t100.5 -182.5t181.5 -122t265.5 -43q112 0 204 35l43 -88q-128 -46 -247 -46q-141 0 -257 37.5t-194 102t-131 152t-76 185t-22 203.5zM569 334q0 -80 47.5 -136.5t120.5 -56.5 q64 0 126 45.5t105 113t69 143.5t26 139q0 91 -40.5 143.5t-117.5 52.5q-109 2 -187 -62.5t-113.5 -163.5t-35.5 -218z" />
<glyph unicode="A" horiz-adv-x="1302" d="M57 0l508 1448h166q85 -237 258 -724.5t258 -723.5h-117l-172 479h-616l-166 -479h-119zM381 582h543l-275 794z" />
<glyph unicode="B" horiz-adv-x="1255" d="M238 0v1434h403q166 0 282.5 -104t116.5 -267q0 -43 -9.5 -83t-31.5 -81.5t-64 -76.5t-101 -58q76 -27 130.5 -67.5t84 -88.5t43.5 -98q13 -47 12 -97v-7q0 -99 -37 -177.5t-101.5 -128t-147.5 -75t-179 -25.5h-401zM348 98h293q85 0 155 28.5t112 75t64.5 100 t22.5 108.5q0 54 -22.5 106.5t-65 96.5t-112 71t-154.5 27h-293v-613zM348 809h293q139 0 216 77.5t77 178.5q0 48 -18.5 95t-53.5 87.5t-92.5 66t-128.5 25.5h-293v-530z" />
<glyph unicode="C" horiz-adv-x="1501" d="M137 713q0 110 28.5 216.5t88 202t142 168.5t198.5 115.5t250 42.5q140 0 265 -52t222 -146l-74 -74q-85 80 -193 126q-101 43 -206 42h-14q-112 -2 -209.5 -40t-167 -100.5t-119.5 -144.5t-74 -173t-24 -183t24.5 -182.5t75 -171.5t120 -143.5t166.5 -99t208 -36.5 q121 0 243.5 55t208.5 144l78 -64q-102 -111 -240.5 -176.5t-289.5 -65.5q-167 0 -304 64.5t-223.5 170.5t-133 236.5t-46.5 268.5z" />
<glyph unicode="D" horiz-adv-x="1492" d="M238 0v1434h415h7q128 0 238 -38q114 -39 194 -106.5t138 -157t87 -190.5t31 -207v-18q0 -81 -16 -161q-18 -88 -56 -170t-97.5 -152t-135 -122.5t-175.5 -82t-213 -29.5h-417zM350 104h303h12q109 0 201 34q98 36 165.5 98t115 143.5t69.5 171.5q20 82 19 166v16 q-2 89 -26 174t-72 162t-115 135t-161 92.5t-204 34.5h-307v-1227z" />
<glyph unicode="E" horiz-adv-x="1087" d="M229 2v1434h715v-107h-602v-557h594v-104h-596v-559h604v-107h-715z" />
<glyph unicode="F" horiz-adv-x="1069" d="M238 0v1434h714v-105h-606v-569h598v-107h-598v-653h-108z" />
<glyph unicode="G" horiz-adv-x="1689" d="M139 715q0 109 28.5 215.5t88 202t142 168.5t198.5 116t250 43q155 0 292.5 -62.5t235.5 -172.5l-82 -68q-84 93 -201.5 145t-244.5 52q-111 0 -208 -38t-167 -101.5t-120.5 -146t-75.5 -173t-25 -180.5q0 -114 40.5 -224.5t114 -201t189 -146t252.5 -55.5 q130 0 254.5 63.5t211.5 180.5t101 258h-643v106h772q-3 -147 -54.5 -278t-140.5 -227.5t-219 -152.5t-282 -56q-134 0 -249.5 41.5t-198 112.5t-141.5 164.5t-88 199t-30 215.5z" />
<glyph unicode="H" horiz-adv-x="1409" d="M233 0v1434h111v-668h725v668h109v-1434h-109v662h-725v-662h-111z" />
<glyph unicode="I" horiz-adv-x="585" d="M238 0v1434h110v-1434h-110z" />
<glyph unicode="J" horiz-adv-x="1124" d="M104 315l101 27q34 -134 119 -193t194 -59q116 0 202.5 82t86.5 221v938h-277v103h388v-1041q0 -79 -22 -146t-60 -115t-89 -81.5t-108.5 -50t-118.5 -16.5q-70 0 -132.5 17.5t-119 55t-99.5 103.5t-65 155z" />
<glyph unicode="K" horiz-adv-x="1298" d="M238 0v1434h108v-768l711 768h125l-564 -635l599 -799h-132l-546 723l-193 -188v-535h-108z" />
<glyph unicode="L" horiz-adv-x="964" d="M203 0v1434h110v-1328h559v-106h-669z" />
<glyph unicode="M" horiz-adv-x="1751" d="M238 0v1436h168l471 -1094q75 170 233 547t233 547h173v-1436h-109l2 1311l-477 -1092h-109l-477 1092v-1311h-108z" />
<glyph unicode="N" horiz-adv-x="1509" d="M238 0v1434h137l786 -1328v1328h111v-1434h-172l-752 1270v-1270h-110z" />
<glyph unicode="O" horiz-adv-x="1687" d="M135 715q0 -142 39.5 -263.5t107.5 -206.5t158.5 -145.5t192 -89t209.5 -28.5t210 28.5t193 89t159 145.5t108 206.5t40 263.5q0 146 -52.5 281t-144 237t-225 162.5t-286.5 60.5q-156 0 -290.5 -60.5t-225 -162.5t-142 -236.5t-51.5 -281.5zM246 715q0 153 51.5 276.5 t135.5 200t191.5 118t219.5 41.5t219.5 -41t191.5 -117t135.5 -200t51.5 -278q0 -123 -34 -228t-92 -179t-135.5 -125.5t-164.5 -75.5q-84 -23 -171 -23h-7q-114 2 -218.5 43t-188.5 117t-134.5 198.5t-50.5 272.5z" />
<glyph unicode="P" horiz-adv-x="1230" d="M238 0v1436h403q110 -1 199.5 -41t145 -105t84.5 -145q28 -77 28 -160v-6q-1 -84 -30.5 -160.5t-84.5 -137.5t-143 -97.5t-197 -36.5h-297v-547h-108zM346 649h295q167 7 259 105q90 96 89 225v6q-2 134 -94.5 235.5t-253.5 110.5h-295v-682z" />
<glyph unicode="Q" horiz-adv-x="1705" d="M135 713q0 146 54 280t147 233.5t224.5 158.5t279.5 59q146 0 277.5 -59.5t224.5 -158.5t147.5 -233.5t54.5 -279.5q0 -260 -155 -451l-13 -14l135 -133l-75 -74l-129 129q-207 -186 -467 -186q-143 0 -274 59t-225 157.5t-150 233t-56 279.5zM244 713 q0 -144 51.5 -264.5t136 -197.5t190.5 -119t218 -42q194 0 391 156l-234 233l74 74l232 -231q131 190 131 391q0 144 -49.5 264t-133 197.5t-190.5 120t-225 42.5q-116 0 -222 -42.5t-189 -120.5t-132 -197.5t-49 -263.5z" />
<glyph unicode="R" horiz-adv-x="1286" d="M238 0v1434h430q203 0 331 -108.5t131 -307.5q1 -193 -122 -297.5t-330 -112.5l475 -608h-139l-473 608h-195v-608h-108zM346 709h324q163 0 257.5 78t94.5 231q0 154 -96.5 232.5t-255.5 78.5h-324v-620z" />
<glyph unicode="S" d="M129 260q15 7 45.5 24t42.5 23q46 -100 136.5 -159.5t201.5 -59.5h7q132 0 222 71q92 73 99 193q1 12 1 24q0 49 -16 92q-20 53 -53 87t-82.5 62.5t-91.5 43.5t-94 29t-92 28.5t-88.5 37.5t-83.5 53t-65 69.5t-45 93.5q-13 48 -13 103v15q3 89 38.5 160.5t92.5 115.5 t126 67t144 23q128 0 237 -65.5t160 -184.5l-86 -43q-44 85 -130 135t-177 50h-6q-51 0 -99 -15q-50 -16 -92.5 -48t-69 -84t-30.5 -118v-14q0 -33 8 -63q10 -36 26 -61.5t44 -48t52.5 -37t61 -28t60 -20.5t58.5 -16q414 -104 414 -425q0 -13 -1 -26q-7 -85 -48 -155.5 t-103 -114.5t-136 -68t-151 -24q-86 0 -167 31t-150 95t-107 152z" />
<glyph unicode="T" horiz-adv-x="931" d="M51 1341v93h830v-93h-361v-1341h-108v1341h-361z" />
<glyph unicode="U" horiz-adv-x="1349" d="M217 406v1028h111v-1028q0 -75 29.5 -136.5t79 -100.5t110.5 -60t127 -21q88 0 166 35t131 109.5t53 173.5v1028h109v-1028q0 -82 -26 -152.5t-70 -119.5t-102.5 -84t-124.5 -51.5t-136 -16.5q-88 0 -168.5 27t-145.5 78t-104 134t-39 185z" />
<glyph unicode="V" horiz-adv-x="1292" d="M53 1434h115l483 -1371l475 1371h115q-84 -237 -254 -722t-254 -722h-166z" />
<glyph unicode="W" horiz-adv-x="1961" d="M111 1434h112l365 -1373q51 166 171.5 578.5t178.5 597.5h109l348 -1176l356 1373h117q-52 -192 -185.5 -687t-205.5 -757h-164l-322 1077l-323 -1075h-164q-65 238 -196.5 720.5t-196.5 721.5z" />
<glyph unicode="X" horiz-adv-x="1325" d="M111 0l493 717l-485 717h127l428 -639l426 639h129l-486 -717l492 -717h-127l-434 637l-436 -637h-127z" />
<glyph unicode="Y" horiz-adv-x="1214" d="M68 1434h120l418 -758l420 758h121l-488 -861v-573h-108v575z" />
<glyph unicode="Z" horiz-adv-x="1171" d="M137 0v109l744 1230h-707v97h846v-58l-776 -1280h788v-98h-895z" />
<glyph unicode="[" horiz-adv-x="645" d="M246 -154q0 294 1 872.5t1 872.5h289v-100h-185l-2 -1546h185v-99h-289z" />
<glyph unicode="\" horiz-adv-x="860" d="M80 1573h104l578 -1686h-109z" />
<glyph unicode="]" horiz-adv-x="647" d="M104 1491v100h289l2 -1745h-289v99h185l-2 1546h-185z" />
<glyph unicode="^" horiz-adv-x="1255" d="M186 662l406 776h72l403 -776h-111l-327 671l-336 -671h-107z" />
<glyph unicode="_" horiz-adv-x="1212" d="M111 -20h993v-99h-993v99z" />
<glyph unicode="`" horiz-adv-x="1050" d="M416 1774h127l123 -213h-95z" />
<glyph unicode="a" d="M119 336q0 69 30.5 130.5t87 109.5t145 76.5t198.5 29.5q153 0 299 -86v86q0 276 -330 276q-87 0 -154 -21.5t-145 -70.5l-47 76q150 115 352 115q67 0 127 -12t115 -40t95 -70t63.5 -107t23.5 -146v-682h-82l-20 111q-68 -65 -152.5 -98.5t-163.5 -35.5h-4 q-213 -1 -325 99q-113 100 -113 260zM223 330q0 -115 87 -185.5t251 -70.5q83 0 173 38t145 103v285q-64 41 -143.5 61.5t-153.5 20.5q-172 0 -265.5 -70.5t-93.5 -181.5z" />
<glyph unicode="b" horiz-adv-x="1193" d="M199 0v1436h108v-496q105 102 264 102h5q115 0 209 -44q96 -46 155 -122t90 -169.5t31 -194.5q0 -99 -30.5 -191t-87.5 -166t-149 -119t-206 -46h-11q-75 0 -147 26q-76 28 -127 95l-16 -111h-88zM305 229q108 -145 262 -145q92 1 167 38t122 97t72.5 134t27.5 155v13 q0 74 -20 143q-22 75 -66.5 137t-116 101.5t-161.5 45.5h-17q-173 0 -270 -117v-602z" />
<glyph unicode="c" horiz-adv-x="1085" d="M117 514q0 100 34.5 195t97 172t161 124t217.5 48q102 0 181 -28.5t148 -94.5l-57 -70q-111 92 -274 92h-5q-74 0 -144 -30q-72 -31 -128 -86t-90 -139.5t-35 -184.5q0 -77 26.5 -151.5t75 -136.5t127.5 -100t175 -38q152 0 278 102q14 -17 35 -40t29 -33 q-68 -62 -157 -96.5t-185 -34.5q-121 0 -220 46t-161 122t-95.5 169.5t-33.5 192.5z" />
<glyph unicode="d" horiz-adv-x="1191" d="M136 433q-3 40 -3 79q0 47 5 95q9 87 49 165t97 138.5t144.5 96t192.5 35.5q159 0 264 -102v496h108v-1436h-88l-16 111q-51 -67 -127 -95q-71 -26 -147 -26h-11q-102 1 -188 38t-141 98.5t-93 140.5t-46 166zM236 509q2 -79 27.5 -154t72.5 -134.5t122 -96t167 -38.5 q155 0 262 143v602q-97 117 -270 117h-17q-89 -6 -161 -45.5t-115 -100.5q-44 -62 -67 -138q-22 -72 -22 -145q1 -5 1 -10z" />
<glyph unicode="e" horiz-adv-x="1234" d="M125 528q0 99 33 191.5t94 167.5t158 120t215 46h3q208 -1 342 -143q136 -144 136 -355q0 -14 -4 -68h-879q5 -78 35 -149.5t79.5 -128t125 -90t164.5 -33.5q92 0 176 34.5t137 100.5l80 -55q-146 -180 -393 -180q-120 0 -218.5 48t-158.5 126q-62 79 -94 174 q-32 92 -31 188v6zM223 578h789q-9 166 -117 269.5t-270 106.5q-117 -1 -204.5 -52t-135 -133.5t-62.5 -190.5z" />
<glyph unicode="f" horiz-adv-x="614" d="M47 946v92h178v107q0 153 97 232q77 63 198 63q30 0 64 -4v-90q-22 2 -42 2q-107 0 -154 -46q-56 -54 -56 -157v-107h229v-92h-229v-946h-107v946h-178z" />
<glyph unicode="g" horiz-adv-x="1196" d="M142 410q-12 54 -12 108q0 58 14 116q26 113 81 205.5t161 150t241 57.5q156 0 266 -107l18 98h88v-1052q0 -85 -24 -152.5t-64 -111t-96 -72.5t-117 -42q-56 -11 -119 -11h-10q-113 2 -216 43t-173 120l62 70q58 -63 144.5 -99t176.5 -36q332 0 332 291v125 q-51 -67 -127 -95q-72 -26 -147 -26h-11q-132 2 -235.5 61t-156 152.5t-76.5 206.5zM235 511q1 -79 27.5 -155t73.5 -135t124 -96t171 -39q155 0 262 143v602q-100 121 -271 121h-16q-91 -6 -163.5 -46t-117.5 -101t-68 -138q-22 -74 -22 -149v-7z" />
<glyph unicode="h" horiz-adv-x="1249" d="M197 0v1434h106v-490q54 52 132 80.5t157 28.5q135 -2 241.5 -55.5t170 -159t63.5 -248.5v-590h-106v590q-1 159 -107.5 258.5t-265.5 105.5h-9q-179 0 -276 -116v-838h-106z" />
<glyph unicode="i" horiz-adv-x="501" d="M195 1274v158h110v-158h-110zM197 0v1040h106v-1040h-106z" />
<glyph unicode="j" horiz-adv-x="501" d="M-14 -295q103 0 157 53.5t54 145.5v1136h108v-1136q0 -146 -88 -222q-82 -69 -210 -69h-21v92zM190 1280v154h113v-154h-113z" />
<glyph unicode="k" horiz-adv-x="1069" d="M197 0v1434h100v-942l541 546h127l-445 -450q61 -76 224.5 -281.5t246.5 -306.5h-117l-421 516l-156 -141v-375h-100z" />
<glyph unicode="l" horiz-adv-x="565" d="M184 289v1145h109v-1145q1 -99 37 -149q36 -49 125 -48h4v-94h-20q-119 0 -184 68q-71 74 -71 223z" />
<glyph unicode="m" horiz-adv-x="1898" d="M197 0v1038h92l14 -88q54 52 131.5 79.5t157.5 27.5q143 -6 229 -51.5t131 -155.5q26 53 59 91t66 60t75 34.5t77.5 16t81.5 3.5q86 0 157.5 -24.5t128 -75t88 -136.5t31.5 -201v-618h-106v618q0 171 -85 255.5t-214 84.5q-64 0 -116 -16t-95 -51t-67 -99t-25 -153v-639 h-101l-4 639q-12 322 -315 322h-9q-178 0 -276 -119v-842h-106z" />
<glyph unicode="n" horiz-adv-x="1269" d="M197 0v1038h92l14 -88q54 52 132 80.5t157 28.5q136 -2 246.5 -55.5t178.5 -159.5t68 -248v-596h-106v596q-1 105 -56 188t-143 128t-192 49h-9q-178 0 -276 -119v-842h-106z" />
<glyph unicode="o" horiz-adv-x="1257" d="M113 518q0 145 66 269t185 199t263 75q145 0 264.5 -75t185.5 -199t66 -269t-66 -269t-185.5 -199t-264.5 -75q-144 0 -263 75t-185 199t-66 269zM219 518q0 -103 35.5 -190t93.5 -142.5t130.5 -86.5t148.5 -31q77 0 149.5 31t131 86.5t93.5 142.5t35 190t-35 189 t-93.5 141t-131 85t-149.5 30q-76 0 -148.5 -30t-130.5 -85t-93.5 -141t-35.5 -189z" />
<glyph unicode="p" horiz-adv-x="1193" d="M197 -401v1439h90l16 -98q107 104 266 104q134 0 239 -57.5t159.5 -149.5t80.5 -204q14 -58 14 -117q0 -53 -12 -108q-24 -112 -76.5 -205t-154.5 -152t-233 -61h-12q-183 0 -273 114v-505h-104zM303 229q107 -143 262 -143q92 2 167 39t122 96t73 134.5t27 154.5 q1 5 1 10q0 74 -22 146q-23 76 -66.5 137t-115.5 101t-161 46h-17q-171 0 -270 -119v-602z" />
<glyph unicode="q" horiz-adv-x="1191" d="M144 408q-12 54 -12 108q0 59 14 117q26 112 80.5 204t159.5 149.5t239 57.5q159 0 266 -104l16 98h90v-1439h-106v505q-90 -114 -271 -114h-12q-131 2 -233 61t-154.5 152t-76.5 205zM240 510q1 -79 27 -154.5t73 -134.5t122 -96t167 -39q155 0 262 143v602 q-99 119 -270 119h-17q-89 -6 -161 -46t-115.5 -101t-66.5 -137q-22 -72 -22 -146q0 -5 1 -10z" />
<glyph unicode="r" horiz-adv-x="835" d="M197 0v1038h86l16 -135q35 56 86.5 91t103.5 47q45 10 93 11q8 0 16 -1q58 -2 103.5 -13t84.5 -28l-43 -88q-57 28 -121 34q-15 1 -29 1q-48 -1 -92 -15q-57 -18 -103 -53.5t-72 -93.5q-25 -54 -25 -119v-10v-666h-104z" />
<glyph unicode="s" horiz-adv-x="907" d="M123 131q39 39 63 66q46 -63 128 -93q67 -25 133 -25q15 0 29 1q80 7 142 60t68 143q-1 42 -24 77t-60.5 58t-75.5 37.5t-77 21.5q-62 11 -114.5 32t-96.5 54.5t-69 83.5t-26 111q0 88 44.5 155t114.5 99t152 40q19 2 39 2q62 0 124 -20q81 -26 139 -80l-64 -69 q-48 47 -124 63q-41 9 -81 9q-34 0 -67 -7q-71 -14 -122 -65q-50 -50 -50 -124q0 -44 22 -80q21 -34 56.5 -55.5t69.5 -34t73 -20.5q65 -13 119.5 -35t101.5 -56.5t74 -85t27 -113.5q0 -73 -33 -132.5t-86 -94.5t-113 -53.5t-119 -18.5q-94 0 -177.5 38.5t-139.5 110.5z" />
<glyph unicode="t" horiz-adv-x="649" d="M57 950v88h154v254l104 23v-277h211v-88h-211v-667q1 -92 57 -144q55 -51 152 -51h4v-96h-21q-129 0 -209 69q-88 75 -87 222v667h-154z" />
<glyph unicode="u" horiz-adv-x="1267" d="M182 434v604h107v-604q0 -82 21.5 -144.5t56 -100.5t87 -62.5t106 -34t120.5 -12.5h4q83 0 156 36q74 38 125 105v817h106v-1038h-92l-14 121q-46 -62 -129.5 -100.5t-161.5 -38.5q-105 2 -190.5 26.5t-155 76t-108 140.5t-38.5 209z" />
<glyph unicode="v" horiz-adv-x="999" d="M63 1038h111l326 -960h8l321 960h113l-362 -1046h-152z" />
<glyph unicode="w" horiz-adv-x="1478" d="M76 1038h110l256 -948h9l215 942h143l219 -942h8l256 948h115l-303 -1040h-150l-213 928h-6l-211 -928h-151z" />
<glyph unicode="x" horiz-adv-x="1060" d="M94 0l361 520q-65 93 -190.5 276t-166.5 242h129l299 -452l299 452h127l-356 -518q65 -90 195 -275.5t172 -244.5h-123l-314 459l-307 -459h-125z" />
<glyph unicode="y" horiz-adv-x="1040" d="M47 1038h115l366 -932l351 932h114l-481 -1235q-36 -98 -102.5 -136t-163.5 -38h-33v88h16q74 0 113 26q44 29 70 95l59 158z" />
<glyph unicode="z" horiz-adv-x="950" d="M115 0v66l594 880h-574v92h692v-69l-591 -877h606v-92h-727z" />
<glyph unicode="{" horiz-adv-x="647" d="M143 657v115q138 14 138 287v303q0 99 51 158t143 59h70v-90h-1h-1q-33 1 -53 -0.5t-43 -8t-35.5 -20t-20.5 -38.5t-8 -62v-340q0 -87 -30 -171t-101 -134q49 -35 79.5 -91.5t40 -107.5t9.5 -106v-336q0 -87 40 -113t122 -24h2v-87h-70q-92 0 -143 59.5t-51 158.5v303 q0 111 -33.5 190.5t-104.5 95.5z" />
<glyph unicode="|" horiz-adv-x="591" d="M242 -305v1907h98v-1907h-98z" />
<glyph unicode="}" horiz-adv-x="647" d="M96 -63h2q82 -2 122 24t40 113v336q0 55 9.5 106t40 107.5t79.5 91.5q-71 50 -101 134t-30 171v340q0 37 -8 62t-20.5 38.5t-35.5 20t-43 8t-53 0.5h-1h-1v90h70q92 0 143 -59t51 -158v-303q0 -273 138 -287v-115q-71 -16 -104.5 -95.5t-33.5 -190.5v-303 q0 -99 -51 -158.5t-143 -59.5h-70v87z" />
<glyph unicode="~" horiz-adv-x="1228" d="M162 571q112 193 266 193q95 0 225 -84q83 -53 148 -53q58 0 101.5 30t88.5 95l70 -43q-45 -89 -113 -136t-145 -47q-87 0 -207 76q-90 57 -170 57q-57 0 -103 -31.5t-96 -103.5q-15 12 -33 23.5t-32 23.5z" />
<glyph unicode="&#xa1;" horiz-adv-x="604" d="M238 854v160h122v-160h-122zM244 -412l2 1114h106v-1114h-108z" />
<glyph unicode="&#xa2;" horiz-adv-x="1148" d="M152 717q1 124 57 242t163.5 202.5t241.5 98.5v174h82v-174q174 -18 289 -121l-57 -72q-66 56 -143.5 79.5t-150.5 16t-141.5 -43t-119.5 -92.5t-82.5 -138.5t-32.5 -175.5q0 -61 15.5 -123t48 -119.5t78.5 -102t112 -71.5t143 -27q146 0 281 109q14 -18 33.5 -39 t27.5 -31q-118 -106 -301 -129v-182h-84v180q-139 13 -246.5 96.5t-160.5 200t-53 242.5z" />
<glyph unicode="&#xa3;" horiz-adv-x="1220" d="M156 0v96h116v566h-112v88h112v290q0 97 33.5 176t89.5 129t126 76.5t147 26.5q91 0 174 -37t149 -114t94 -183l-88 -14q-28 113 -123.5 181.5t-201.5 68.5q-58 0 -109 -17.5t-94 -52.5t-68.5 -97t-25.5 -143v-290h461v-88h-461v-566h725v-96h-944z" />
<glyph unicode="&#xa5;" horiz-adv-x="1263" d="M96 1434h113l434 -770l426 770h117l-359 -643h187v-78h-236l-86 -148v-51h322v-82h-322v-432h-100v432h-322v82h322v51l-90 148h-232v78h187z" />
<glyph unicode="&#xa6;" horiz-adv-x="587" d="M244 -305v799h98v-799h-98zM244 809v793h98v-793h-98z" />
<glyph unicode="&#xa7;" horiz-adv-x="960" d="M129 131l66 64q112 -115 254 -115q93 -2 168.5 49.5t74.5 144.5q0 146 -237 191q-63 11 -114.5 30.5t-95.5 50.5t-68.5 79.5t-24.5 109.5q0 63 38.5 121t100.5 82l-15 10q-92 69 -92 197q0 134 100.5 213.5t237.5 79.5q166 0 275 -103l-60 -69q-99 72 -219 75 q-94 2 -164 -53.5t-69 -142.5q0 -133 227 -178q65 -13 118 -34.5t99.5 -54t73 -82t26.5 -110.5q0 -149 -139 -209q59 -44 85 -89.5t26 -113.5q0 -59 -22 -108.5t-58 -83t-82.5 -56.5t-94.5 -33.5t-95 -10.5q-94 0 -179 38.5t-141 110.5zM250 735q0 -35 16 -63t38 -46t56 -32 t60 -21t59 -14h2q67 -10 135 -37q111 62 111 164q0 41 -20 73t-48.5 51t-70.5 34t-77.5 22.5t-78.5 16.5t-65 16q-120 -62 -117 -164z" />
<glyph unicode="&#xa8;" horiz-adv-x="1050" d="M289 1622v127h125v-127h-125zM643 1622v127h125v-127h-125z" />
<glyph unicode="&#xa9;" horiz-adv-x="1710" d="M152 717q0 149 55 283.5t148.5 231.5t223.5 154.5t273 57.5q145 0 276 -57.5t225.5 -154.5t150 -231.5t55.5 -283.5t-55.5 -283.5t-150 -231.5t-225.5 -154.5t-276 -57.5q-143 0 -273 57.5t-223.5 154.5t-148.5 231.5t-55 283.5zM252 717q0 -173 79 -316.5t217 -226 t304 -82.5q168 0 307.5 82.5t219 226t79.5 316.5t-79.5 316.5t-219 225.5t-307.5 82q-167 0 -304.5 -82t-216.5 -225.5t-79 -316.5zM498 716.5q0 109.5 49 198.5q50 92 134.5 140.5t188.5 48.5q148 0 250 -96l-61 -64q-82 66 -189 66q-164 0 -237 -133q-40 -65 -39 -160.5 t47 -171.5q36 -56 97.5 -87.5t131.5 -31.5q113 0 191 66l57 -66q-108 -94 -248 -94q-99 0 -186 48.5t-137 135.5q-49 91 -49 200.5z" />
<glyph unicode="&#xaa;" horiz-adv-x="985" d="M152 1065q0 157 108 268.5t262 114.5q163 7 291 -55v-695h-80l-10 88q-42 -50 -105.5 -72t-115.5 -22q-32 0 -62 6q-126 27 -207 126t-81 241zM186 465v92h631l-2 -92h-629zM242 1065q0 -99 62.5 -179.5t158.5 -103.5q75 -15 144 10.5t114 88.5l2 467q-86 30 -199 22 q-120 -11 -201 -98t-81 -207z" />
<glyph unicode="&#xab;" horiz-adv-x="1107" d="M135 578l320 401h114l-313 -401l315 -400h-116zM528 578l320 401h115l-314 -401l316 -400h-117z" />
<glyph unicode="&#xac;" horiz-adv-x="1286" d="M164 741v95h923v-506h-88v411h-835z" />
<glyph unicode="&#xad;" horiz-adv-x="911" d="M170 539v98h573v-98h-573z" />
<glyph unicode="&#xae;" horiz-adv-x="1710" d="M154 713q0 149 55 283.5t148.5 231.5t223.5 154.5t273 57.5q145 0 276 -57.5t225.5 -154.5t150 -231.5t55.5 -283.5t-55.5 -283.5t-150 -231.5t-225.5 -154.5t-276 -57.5q-143 0 -273 57.5t-223.5 154.5t-148.5 231.5t-55 283.5zM250 713q0 -174 79.5 -318.5 t218.5 -227.5t306 -83q169 0 309.5 83t220.5 227.5t80 318.5q0 131 -47.5 247.5t-128.5 200t-194 132t-240 48.5q-167 0 -306 -82.5t-218.5 -227t-79.5 -318.5zM629 338v772h239q115 0 188 -63t74 -173q0 -91 -60 -148.5t-163 -72.5l248 -315h-104l-234 307h-100v-307h-88z M717 727h151q49 1 87.5 18.5t58 44.5t28 59t-1 64t-29.5 58t-57.5 42.5t-85.5 16.5h-151v-303z" />
<glyph unicode="&#xaf;" horiz-adv-x="1050" d="M270 1571v84h506v-84h-506z" />
<glyph unicode="&#xb0;" horiz-adv-x="811" d="M137 1194q0 106 75.5 182t182.5 76t183.5 -76t76.5 -182t-76.5 -182t-183.5 -76t-182.5 76t-75.5 182zM221 1194q0 -71 50.5 -119.5t123.5 -48.5t123.5 48.5t50.5 119.5q0 70 -50.5 120t-123.5 50t-123.5 -50t-50.5 -120z" />
<glyph unicode="&#xb1;" horiz-adv-x="1423" d="M231 727v100h422v428h97v-428h428v-100h-428v-432h-97v432h-422zM246 12v94h932v-94h-932z" />
<glyph unicode="&#xb2;" horiz-adv-x="837" d="M106 739l449 422q33 29 52.5 60.5t25.5 71.5t-17 79q-23 43 -77 65.5t-111 24.5h2q-73 3 -134 -23.5t-93 -82.5q-19 7 -42 19.5t-36 17.5q38 80 123 121.5t182 41.5q99 0 178.5 -48.5t106.5 -137.5q22 -72 -6.5 -143.5t-90.5 -130.5l-376 -344h489v-86h-590z" />
<glyph unicode="&#xb3;" horiz-adv-x="872" d="M133 776l64 49q44 -58 107 -89t134 -31q83 0 147 47t64 127q0 76 -57.5 127t-136.5 51h-66v80h66q72 0 120 34t48 103q0 72 -54.5 111.5t-130.5 39.5q-134 0 -194 -88l-76 33q38 68 110.5 105.5t153.5 37.5q116 0 202.5 -65.5t86.5 -177.5q0 -49 -28.5 -95t-69.5 -65 l-52 -12l52 -15q125 -64 125 -206q-1 -122 -95 -193.5t-219 -71.5q-88 0 -171.5 44.5t-129.5 119.5z" />
<glyph unicode="&#xb4;" horiz-adv-x="1001" d="M397 1561l123 213h127l-155 -213h-95z" />
<glyph unicode="&#xb6;" horiz-adv-x="1236" d="M127 1012q0 81 29 156t84 135.5t143.5 96.5t198.5 36h424v-1631h-99v1530h-254v-1530h-100v793q-102 4 -185 41.5t-134.5 96t-79 129.5t-27.5 147z" />
<glyph unicode="&#xb7;" horiz-adv-x="561" d="M221 532v148h133v-148h-133z" />
<glyph unicode="&#xb8;" horiz-adv-x="1050" d="M360 -367l15 70q37 -23 91 -29t97 13.5t43 62.5q0 67 -119 70q-33 0 -51 -6l-20 18q16 28 48.5 91.5t45.5 86.5h76l-64 -116q53 -2 92.5 -20t57.5 -44t24 -57t-7 -61.5t-36 -56t-62.5 -41t-86.5 -15.5q-72 0 -144 34z" />
<glyph unicode="&#xb9;" horiz-adv-x="630" d="M141 1346v88h226v-883h-95v795h-131z" />
<glyph unicode="&#xba;" horiz-adv-x="985" d="M184 1145q0 128 88.5 214.5t216.5 86.5q130 0 220 -86.5t90 -214.5q0 -133 -89 -220t-218 -87q-131 0 -219.5 86.5t-88.5 220.5zM201 561v96h585v-96h-585zM274 1145q0 -97 63 -159t155 -62q91 0 153 62t62 159q0 94 -62 154.5t-153 60.5q-92 0 -155 -60.5t-63 -154.5z " />
<glyph unicode="&#xbb;" horiz-adv-x="1150" d="M168 178l315 400l-313 401h115l319 -401l-319 -400h-117zM561 178l316 400l-314 401h115l319 -401l-319 -400h-117z" />
<glyph unicode="&#xbc;" horiz-adv-x="1898" d="M215 1346v88h225v-818h-94v730h-131zM483 -45l750 1569h96l-749 -1569h-97zM1110 279q87 113 235.5 315t217.5 293h106v-615h80v-82h-80v-190h-88v190h-407zM1210 272h371v502z" />
<glyph unicode="&#xbd;" horiz-adv-x="1941" d="M190 1346v88h226v-818h-94v730h-132zM395 -41l752 1557h96l-749 -1557h-99zM1149 72l448 422q33 29 53 60t26 71.5t-17 79.5q-23 43 -77.5 65.5t-111.5 24.5h3q-73 3 -134.5 -24t-93.5 -83q-19 7 -42 19.5t-36 17.5q38 80 123.5 122t182.5 42q98 0 177.5 -49t106.5 -138 q22 -72 -6 -144t-90 -130l-377 -344h490v-86h-590z" />
<glyph unicode="&#xbe;" horiz-adv-x="2033" d="M133 735l64 49q44 -58 107 -89t134 -31q83 0 148 47t65 127q0 76 -58.5 127t-137.5 51h-66v80h66q73 0 122.5 34t49.5 103q0 72 -56 111.5t-133 39.5q-134 0 -194 -88l-76 33q39 68 111 106t153 38q115 0 202 -66t87 -178q0 -49 -28.5 -95t-69.5 -65l-39 -12l39 -15 q125 -64 125 -206q-1 -122 -95 -193.5t-219 -71.5q-88 0 -171.5 44.5t-129.5 119.5zM610 -53l760 1569h96l-759 -1569h-97zM1182 279q86 113 234 314t218 294h107v-615h80v-82h-80v-190h-88v190h-408zM1282 272h371v502z" />
<glyph unicode="&#xbf;" horiz-adv-x="1019" d="M115 29q1 174 112.5 286.5t296.5 145.5l13 293h84l12 -371q-81 -5 -154.5 -30.5t-133 -68.5t-93.5 -109.5t-33 -147.5q1 -75 31 -135.5t78.5 -96.5t107 -55t121.5 -19q82 0 164.5 36.5t138.5 95.5q19 -15 42 -30.5t34 -23.5l-6 -8q-64 -82 -165 -126t-212 -44 q-67 0 -130.5 17t-119.5 51t-98 82t-66.5 114.5t-23.5 143.5zM514 920v149h117v-149h-117z" />
<glyph unicode="&#xc0;" horiz-adv-x="1302" d="M57 0l508 1448h166q85 -237 258 -724.5t258 -723.5h-117l-172 479h-616l-166 -479h-119zM381 582h543l-275 794zM446 1745h127l123 -213h-94z" />
<glyph unicode="&#xc1;" horiz-adv-x="1302" d="M57 0h119l166 479h616l172 -479h117q-85 236 -258 723.5t-258 724.5h-166zM381 582l268 794l275 -794h-543zM592 1532l123 213h127l-156 -213h-94z" />
<glyph unicode="&#xc2;" horiz-adv-x="1302" d="M57 0l508 1448h166q85 -237 258 -724.5t258 -723.5h-117l-172 479h-616l-166 -479h-119zM381 582h543l-275 794zM406 1520l172 204h141l168 -204h-99l-141 159l-143 -159h-98z" />
<glyph unicode="&#xc3;" horiz-adv-x="1302" d="M57 0l508 1448h166q85 -237 258 -724.5t258 -723.5h-117l-172 479h-616l-166 -479h-119zM381 582h543l-275 794zM401 1573q65 115 154 115q54 0 117 -50q49 -37 97.5 -26.5t82.5 67.5l45 -39q-24 -52 -62 -80t-81 -28q-60 0 -105 37q-53 44 -106 37t-92 -70 q-37 26 -50 37z" />
<glyph unicode="&#xc4;" horiz-adv-x="1302" d="M57 0l508 1448h166q85 -237 258 -724.5t258 -723.5h-117l-172 479h-616l-166 -479h-119zM381 582h543l-275 794zM403 1524v127h125v-127h-125zM758 1524v127h125v-127h-125z" />
<glyph unicode="&#xc5;" horiz-adv-x="1302" d="M57 0l508 1448h166q85 -237 258 -724.5t258 -723.5h-117l-172 479h-616l-166 -479h-119zM381 582h543l-275 794zM508 1665q-1 52 26.5 88t67.5 44t80.5 -0.5t69 -44t28.5 -87.5q0 -87 -69 -123t-137 -0.5t-66 123.5zM567 1665q-1 -32 15 -53.5t39 -26t46 0.5t39.5 26.5 t16.5 52.5q0 50 -39.5 71.5t-78.5 1t-38 -72.5z" />
<glyph unicode="&#xc6;" horiz-adv-x="1779" d="M53 0l764 1434h830v-99h-615v-563h608v-100h-608v-570h615v-102h-721v506h-482l-268 -506h-123zM494 602h432v741h-49z" />
<glyph unicode="&#xc7;" horiz-adv-x="1501" d="M137 713q0 110 28.5 216.5t88 202t142 168.5t198.5 115.5t250 42.5q140 0 265 -52t222 -146l-74 -74q-85 80 -193 125.5t-220 42.5q-112 -2 -209.5 -40t-167 -100.5t-119.5 -144.5t-74 -173t-24 -183t24.5 -182.5t75 -171.5t120 -143.5t166.5 -99t208 -36.5 q121 0 243.5 55t208.5 144l78 -64q-96 -106 -227 -170t-275 -70l-45 -86q53 -2 92.5 -20t57.5 -44t24 -57t-7 -61.5t-36 -56t-62.5 -41t-86.5 -15.5q-68 0 -143 35l14 70q37 -23 91 -29t97 13.5t43 62.5q0 67 -118 70q-34 0 -52 -6l-20 18l78 147q-126 7 -234.5 52.5 t-186 117.5t-132.5 164.5t-82 195t-27 208.5z" />
<glyph unicode="&#xc8;" horiz-adv-x="1087" d="M229 2v1434h715v-107h-602v-557h594v-104h-596v-559h604v-107h-715zM416 1741h127l123 -213h-95z" />
<glyph unicode="&#xc9;" horiz-adv-x="1087" d="M229 2h715v107h-604v559h596v104h-594v557h602v107h-715v-1434zM541 1526l123 213h127l-156 -213h-94z" />
<glyph unicode="&#xca;" horiz-adv-x="1087" d="M229 2v1434h715v-105h-602v-559h594v-104h-596v-559h604v-107h-715zM348 1526l172 205h142l167 -205h-98l-141 160l-144 -160h-98z" />
<glyph unicode="&#xcb;" horiz-adv-x="1087" d="M229 0v1436h715v-107h-602v-557h594v-104h-596v-562h604v-106h-715zM369 1536v127h125v-127h-125zM723 1536v127h125v-127h-125z" />
<glyph unicode="&#xcc;" horiz-adv-x="585" d="M86 1753h127l123 -213h-94zM238 0v1434h110v-1434h-110z" />
<glyph unicode="&#xcd;" horiz-adv-x="585" d="M238 0h110v1434h-110v-1434zM242 1534l123 213h127l-156 -213h-94z" />
<glyph unicode="&#xce;" horiz-adv-x="585" d="M49 1518l172 204h141l168 -204h-98l-141 159l-144 -159h-98zM238 0v1434h110v-1434h-110z" />
<glyph unicode="&#xcf;" horiz-adv-x="585" d="M53 1522v127h125v-127h-125zM238 0v1434h110v-1434h-110zM408 1522v127h124v-127h-124z" />
<glyph unicode="&#xd0;" horiz-adv-x="1505" d="M125 668v92h125v674h416q131 1 244 -38t193 -106.5t138 -157t86.5 -190.5t30.5 -207q2 -108 -23.5 -213t-82.5 -199.5t-137.5 -166.5t-196 -114t-250.5 -42h-418v668h-125zM356 98h310q115 -2 213 34.5t166 99.5t115.5 145.5t69 173t19.5 182.5q-2 89 -26 174.5 t-72.5 163t-115.5 136.5t-161 93.5t-204 34.5h-314v-575h279v-92h-279v-570z" />
<glyph unicode="&#xd1;" horiz-adv-x="1509" d="M238 0v1434h137l786 -1328v1328h111v-1434h-172l-752 1270v-1270h-110zM473 1569q71 127 170 127q66 0 131 -56q54 -41 108.5 -28t92.5 76l51 -46q-27 -56 -70.5 -88t-91.5 -32q-65 0 -114 43q-137 107 -224 -39q-19 13 -53 43z" />
<glyph unicode="&#xd2;" horiz-adv-x="1687" d="M135 715q0 147 51.5 281.5t142 236.5t225 162.5t290.5 60.5q153 0 286.5 -60.5t225 -162.5t144 -237t52.5 -281q0 -177 -61 -320.5t-160.5 -231.5t-227 -135.5t-260 -47.5t-260 47.5t-227 135.5t-160.5 231.5t-61 320.5zM246 715q0 -152 51.5 -275t135.5 -198.5 t191.5 -116.5t219.5 -41.5t219.5 40.5t191.5 116.5t135.5 199t51.5 275.5q0 154 -51.5 278t-135.5 200t-191.5 117t-219.5 41t-219.5 -41.5t-191.5 -118t-135.5 -200t-51.5 -276.5zM649 1745h127l123 -213h-94z" />
<glyph unicode="&#xd3;" horiz-adv-x="1687" d="M135 715q0 -177 61 -320.5t160.5 -231.5t227 -135.5t260 -47.5t260 47.5t227 135.5t160.5 231.5t61 320.5q0 146 -52.5 281t-144 237t-225 162.5t-286.5 60.5q-156 0 -290.5 -60.5t-225 -162.5t-142 -236.5t-51.5 -281.5zM246 715q0 153 51.5 276.5t135.5 200t191.5 118 t219.5 41.5t219.5 -41t191.5 -117t135.5 -200t51.5 -278q0 -152 -51.5 -275.5t-135.5 -199t-191.5 -116.5t-219.5 -40.5t-219.5 41.5t-191.5 116.5t-135.5 198.5t-51.5 275zM786 1532l123 213h127l-155 -213h-95z" />
<glyph unicode="&#xd4;" horiz-adv-x="1687" d="M135 715q0 147 51.5 281.5t142 236.5t225 162.5t290.5 60.5q153 0 286.5 -60.5t225 -162.5t144 -237t52.5 -281q0 -177 -61 -320.5t-160.5 -231.5t-227 -135.5t-260 -47.5t-260 47.5t-227 135.5t-160.5 231.5t-61 320.5zM246 715q0 -152 51.5 -275t135.5 -198.5 t191.5 -116.5t219.5 -41.5t219.5 40.5t191.5 116.5t135.5 199t51.5 275.5q0 154 -51.5 278t-135.5 200t-191.5 117t-219.5 41t-219.5 -41.5t-191.5 -118t-135.5 -200t-51.5 -276.5zM598 1528l172 205h141l168 -205h-98l-141 160l-144 -160h-98z" />
<glyph unicode="&#xd5;" horiz-adv-x="1687" d="M135 715q0 147 51.5 281.5t142 236.5t225 162.5t290.5 60.5q153 0 286.5 -60.5t225 -162.5t144 -237t52.5 -281q0 -177 -61 -320.5t-160.5 -231.5t-227 -135.5t-260 -47.5t-260 47.5t-227 135.5t-160.5 231.5t-61 320.5zM246 715q0 -152 51.5 -275t135.5 -198.5 t191.5 -116.5t219.5 -41.5t219.5 40.5t191.5 116.5t135.5 199t51.5 275.5q0 154 -51.5 278t-135.5 200t-191.5 117t-219.5 41t-219.5 -41.5t-191.5 -118t-135.5 -200t-51.5 -276.5zM575 1577q72 119 170 119q63 0 129 -51q54 -38 108 -26.5t91 69.5l51 -41 q-28 -54 -70 -83.5t-89 -29.5q-68 0 -115 39q-134 99 -221 -35q-11 6 -54 39z" />
<glyph unicode="&#xd6;" horiz-adv-x="1687" d="M135 715q0 147 51.5 281.5t142 236.5t225 162.5t290.5 60.5q153 0 286.5 -60.5t225 -162.5t144 -237t52.5 -281q0 -177 -61 -320.5t-160.5 -231.5t-227 -135.5t-260 -47.5t-260 47.5t-227 135.5t-160.5 231.5t-61 320.5zM246 715q0 -152 51.5 -275t135.5 -198.5 t191.5 -116.5t219.5 -41.5t219.5 40.5t191.5 116.5t135.5 199t51.5 275.5q0 154 -51.5 278t-135.5 200t-191.5 117t-219.5 41t-219.5 -41.5t-191.5 -118t-135.5 -200t-51.5 -276.5zM598 1540v127h125v-127h-125zM952 1540v127h125v-127h-125z" />
<glyph unicode="&#xd7;" horiz-adv-x="1071" d="M168 283l315 313l-311 309l66 66l311 -309l299 296l65 -67l-301 -297l312 -307l-68 -64l-307 305l-316 -315z" />
<glyph unicode="&#xd8;" horiz-adv-x="1687" d="M139 715q0 145 56 279t150 232.5t225 157t274 58.5q194 0 336 -92l100 168h100l-129 -215q137 -108 217 -263t80 -325q0 -146 -56 -279.5t-150 -230.5t-224.5 -155t-273.5 -58q-149 0 -326 86q-14 -25 -50.5 -81t-49.5 -79h-99l127 205q-141 107 -224 262.5t-83 329.5z M246 715q0 -157 68 -289t182 -223l630 1067q-117 71 -284 71q-89 -1 -175 -27.5t-162 -79.5t-134 -126.5t-91.5 -175t-33.5 -217.5zM571 158q151 -66 273 -66q89 0 174.5 25t162.5 77t135 125t92 175t34 221q0 153 -65.5 286.5t-174.5 223.5z" />
<glyph unicode="&#xd9;" horiz-adv-x="1349" d="M217 406v1028h111v-1028q0 -75 29.5 -136.5t79 -100.5t110.5 -60t127 -21q88 0 166 35t131 109.5t53 173.5v1028h109v-1028q0 -82 -26 -152.5t-70 -119.5t-102.5 -84t-124.5 -51.5t-136 -16.5q-88 0 -168.5 27t-145.5 78t-104 134t-39 185zM485 1741h127l123 -213h-94z " />
<glyph unicode="&#xda;" horiz-adv-x="1349" d="M217 406q0 -102 39 -185t104 -134t145.5 -78t168.5 -27q70 0 136 16.5t124.5 51.5t102.5 84t70 119.5t26 152.5v1028h-109v-1028q0 -99 -53 -173.5t-131 -109.5t-166 -35q-66 0 -127 21t-110.5 60t-79 100.5t-29.5 136.5v1028h-111v-1028zM594 1522l123 213h127 l-156 -213h-94z" />
<glyph unicode="&#xdb;" horiz-adv-x="1349" d="M217 406v1028h111v-1028q0 -75 29.5 -136.5t79 -100.5t110.5 -60t127 -21q88 0 166 35t131 109.5t53 173.5v1028h109v-1028q0 -82 -26 -152.5t-70 -119.5t-102.5 -84t-124.5 -51.5t-136 -16.5q-88 0 -168.5 27t-145.5 78t-104 134t-39 185zM434 1520l172 204h142 l167 -204h-98l-141 159l-144 -159h-98z" />
<glyph unicode="&#xdc;" horiz-adv-x="1349" d="M217 406v1028h111v-1028q0 -75 29.5 -136.5t79 -100.5t110.5 -60t127 -21q88 0 166 35t131 109.5t53 173.5v1028h109v-1028q0 -82 -26 -152.5t-70 -119.5t-102.5 -84t-124.5 -51.5t-136 -16.5q-88 0 -168.5 27t-145.5 78t-104 134t-39 185zM430 1532v127h125v-127h-125z M784 1532v127h125v-127h-125z" />
<glyph unicode="&#xdd;" horiz-adv-x="1214" d="M68 1434l483 -859v-575h108v573l488 861h-121l-420 -758l-418 758h-120zM530 1530l123 213h127l-155 -213h-95z" />
<glyph unicode="&#xde;" horiz-adv-x="1196" d="M231 -2v1436h107v-254h295q109 0 198.5 -38t144.5 -100.5t84.5 -140t29.5 -160.5q0 -84 -29.5 -160t-84.5 -136.5t-143.5 -96t-197.5 -35.5h-297v-315h-107zM338 414h295q83 0 151.5 29t110.5 77t65 105t23 116q0 60 -23 119t-65.5 108.5t-111 80t-150.5 30.5h-295v-665z " />
<glyph unicode="&#xdf;" horiz-adv-x="1198" d="M193 -2v1094q-1 77 25 142t71 107t103 72t122 37t128.5 1.5t123 -34t103.5 -69.5t71.5 -105.5t26.5 -142.5q0 -58 -19 -115.5t-68 -115.5t-122 -89q139 -50 219.5 -150.5t79.5 -228.5q2 -99 -33 -181t-96 -134t-138.5 -80.5t-162.5 -28.5t-181 27v90q61 -20 150 -20 q91 0 161.5 28t111.5 76t61 104t20 119q0 58 -23.5 114.5t-67 102.5t-112 74.5t-151.5 28.5h-94v100h94q83 0 147.5 46t93.5 110t25 129q1 100 -57 166.5t-141.5 79.5t-166.5 -5t-141.5 -87t-58.5 -168v-1094h-104z" />
<glyph unicode="&#xe0;" d="M118 330q4 134 108 231q129 118 354 121q148 0 294 -86v43q0 81 -26.5 141.5t-73 95t-103 51.5t-122.5 17q-154 0 -299 -90l-53 74q74 57 168.5 86.5t189.5 29.5q66 0 127 -15t115 -47.5t94.5 -79t64 -114.5t23.5 -149v-639h-82l-20 111q-68 -65 -152.5 -98.5 t-163.5 -35.5q-226 -2 -350 123q-96 97 -93 230zM225 293q15 -102 114 -164q89 -55 222 -55q83 0 170.5 38t142.5 103v283q-129 82 -292 82q-198 0 -297 -106q-75 -80 -60 -181zM375 1417h127l123 -213h-95z" />
<glyph unicode="&#xe1;" d="M118 315q3 -133 105 -226q123 -113 338 -112q79 2 163.5 35.5t152.5 98.5l20 -111h82v639q0 81 -23.5 149t-64 114.5t-94.5 79t-115 47.5t-127 15q-95 0 -189.5 -29.5t-168.5 -86.5l53 -74q145 90 299 90q66 0 122.5 -17t103 -51.5t73 -95t26.5 -141.5v-43 q-146 86 -294 86q-238 -2 -366 -133q-99 -100 -96 -234zM225 356q17 104 119 166q95 58 238 58q163 0 292 -82v-283q-55 -65 -142.5 -103t-170.5 -38q-185 0 -279 102q-73 79 -57 180zM496 1200l122 213h127l-155 -213h-94z" />
<glyph unicode="&#xe2;" d="M118 330q4 134 108 231q129 118 354 121q148 0 294 -86v43q0 81 -26.5 141.5t-73 95t-103 51.5t-122.5 17q-154 0 -299 -90l-53 74q74 57 168.5 86.5t189.5 29.5q66 0 127 -15t115 -47.5t94.5 -79t64 -114.5t23.5 -149v-639h-82l-20 111q-68 -65 -152.5 -98.5 t-163.5 -35.5q-226 -2 -350 123q-96 97 -93 230zM225 293q15 -102 114 -164q89 -55 222 -55q83 0 170.5 38t142.5 103v283q-129 82 -292 82q-198 0 -297 -106q-75 -80 -60 -181zM330 1202l172 205h141l168 -205h-98l-142 160l-143 -160h-98z" />
<glyph unicode="&#xe3;" d="M118 330q4 134 108 231q129 118 354 121q148 0 294 -86v43q0 81 -26.5 141.5t-73 95t-103 51.5t-122.5 17q-154 0 -299 -90l-53 74q74 57 168.5 86.5t189.5 29.5q66 0 127 -15t115 -47.5t94.5 -79t64 -114.5t23.5 -149v-639h-82l-20 111q-68 -65 -152.5 -98.5 t-163.5 -35.5q-226 -2 -350 123q-96 97 -93 230zM225 293q15 -102 114 -164q89 -55 222 -55q83 0 170.5 38t142.5 103v283q-129 82 -292 82q-198 0 -297 -106q-75 -80 -60 -181zM301 1278q67 117 166 117q57 0 125 -49q52 -38 103.5 -27.5t88.5 67.5l50 -38q-26 -53 -68 -83 t-88 -30q-67 0 -111 39q-131 100 -215 -35q-12 8 -29.5 22t-21.5 17z" />
<glyph unicode="&#xe4;" d="M118 330q4 134 108 231q129 118 354 121q148 0 294 -86v43q0 81 -26.5 141.5t-73 95t-103 51.5t-122.5 17q-154 0 -299 -90l-53 74q74 57 168.5 86.5t189.5 29.5q66 0 127 -15t115 -47.5t94.5 -79t64 -114.5t23.5 -149v-639h-82l-20 111q-68 -65 -152.5 -98.5 t-163.5 -35.5q-226 -2 -350 123q-96 97 -93 230zM225 293q15 -102 114 -164q89 -55 222 -55q83 0 170.5 38t142.5 103v283q-129 82 -292 82q-198 0 -297 -106q-75 -80 -60 -181zM334 1266v127h125v-127h-125zM688 1266v127h125v-127h-125z" />
<glyph unicode="&#xe5;" d="M118 330q4 134 108 231q129 118 354 121q148 0 294 -86v43q0 81 -26.5 141.5t-73 95t-103 51.5t-122.5 17q-154 0 -299 -90l-53 74q74 57 168.5 86.5t189.5 29.5q66 0 127 -15t115 -47.5t94.5 -79t64 -114.5t23.5 -149v-639h-82l-20 111q-68 -65 -152.5 -98.5 t-163.5 -35.5q-226 -2 -350 123q-96 97 -93 230zM225 293q15 -102 114 -164q89 -55 222 -55q83 0 170.5 38t142.5 103v283q-129 82 -292 82q-198 0 -297 -106q-75 -80 -60 -181zM432 1294q-1 52 26.5 88t68 44t81 -0.5t69 -44t28.5 -87.5q0 -87 -69 -123t-137.5 -0.5 t-66.5 123.5zM492 1294q-1 -32 15 -53.5t39 -26t46 0.5t39 26.5t16 52.5q0 50 -39 71.5t-78 1t-38 -72.5z" />
<glyph unicode="&#xe6;" horiz-adv-x="2004" d="M128 330q4 134 108 231q129 118 354 121q69 0 152.5 -22t154.5 -64v43q0 81 -28.5 143t-77 98.5t-107.5 55t-125 18.5q-147 0 -299 -94l-53 74q75 57 169 87t189 30q89 0 166 -25.5t140.5 -86.5t86.5 -151q55 126 169 194.5t264 70.5q210 1 345.5 -142.5t135.5 -355.5 q0 -14 -4 -68h-879q5 -78 35 -149.5t79.5 -128t125 -90t164.5 -33.5q92 0 176 34.5t137 100.5l80 -55q-146 -180 -393 -180q-124 0 -221.5 50t-163.5 136q-58 -61 -118.5 -102.5t-118 -60t-103 -25.5t-97.5 -7q-226 -2 -350 123q-96 97 -93 230zM235 293q15 -102 114 -164 q89 -55 222 -55q86 0 205.5 48.5t181.5 127.5q-32 63 -45 117.5t-16 128.5v2q-64 40 -147 61t-158 21q-198 0 -297 -106q-75 -80 -60 -181zM989 578h789q-9 166 -117 269.5t-270 106.5q-177 -1 -282.5 -104.5t-119.5 -271.5z" />
<glyph unicode="&#xe7;" horiz-adv-x="1085" d="M117 514q0 100 34.5 195t97 172t161 124t217.5 48q102 0 181 -28.5t148 -94.5l-57 -70q-111 92 -274 92q-77 1 -149 -30t-128 -86t-90 -139.5t-35 -184.5q0 -77 26.5 -151.5t75 -136.5t127.5 -100t175 -38q152 0 278 102q14 -17 35 -40t29 -33q-135 -122 -314 -131 l-43 -70q75 -3 121.5 -32.5t53 -69.5t-9.5 -79.5t-65.5 -67t-115.5 -27.5q-57 0 -145 36l18 70q37 -21 90.5 -27.5t96 10.5t42.5 56q0 29 -31 46.5t-89 18.5q-34 0 -52 -4l-20 17l74 125q-110 8 -199.5 57t-146 123t-87 164t-30.5 184z" />
<glyph unicode="&#xe8;" horiz-adv-x="1234" d="M125 528q0 99 33 191.5t94 167.5t158 120t215 46q210 1 345.5 -142.5t135.5 -355.5q0 -14 -4 -68h-879q5 -78 35 -149.5t79.5 -128t125 -90t164.5 -33.5q92 0 176 34.5t137 100.5l80 -55q-146 -180 -393 -180q-120 0 -218.5 48t-159 126.5t-93 173.5t-31.5 194zM223 578 h789q-9 166 -117 269.5t-270 106.5q-117 -1 -204.5 -52t-135 -133.5t-62.5 -190.5zM436 1421h127l123 -213h-94z" />
<glyph unicode="&#xe9;" horiz-adv-x="1234" d="M125 528q-1 -99 31.5 -194t93 -173.5t159 -126.5t218.5 -48q247 0 393 180l-80 55q-53 -66 -137 -100.5t-176 -34.5q-89 0 -164.5 33.5t-125 90t-79.5 128t-35 149.5h879q4 54 4 68q0 212 -135.5 355.5t-345.5 142.5q-118 -1 -215 -46t-158 -120t-94 -167.5t-33 -191.5z M223 578q15 108 62.5 190.5t135 133.5t204.5 52q162 -3 270 -106.5t117 -269.5h-789zM547 1204l123 213h127l-156 -213h-94z" />
<glyph unicode="&#xea;" horiz-adv-x="1234" d="M125 528q0 99 33 191.5t94 167.5t158 120t215 46q210 1 345.5 -142.5t135.5 -355.5q0 -14 -4 -68h-879q5 -78 35 -149.5t79.5 -128t125 -90t164.5 -33.5q92 0 176 34.5t137 100.5l80 -55q-146 -180 -393 -180q-120 0 -218.5 48t-159 126.5t-93 173.5t-31.5 194zM223 578 h789q-9 166 -117 269.5t-270 106.5q-117 -1 -204.5 -52t-135 -133.5t-62.5 -190.5zM385 1202l172 205h141l168 -205h-98l-141 160l-144 -160h-98z" />
<glyph unicode="&#xeb;" horiz-adv-x="1234" d="M125 528q0 99 33 191.5t94 167.5t158 120t215 46q210 1 345.5 -142.5t135.5 -355.5q0 -14 -4 -68h-879q5 -78 35 -149.5t79.5 -128t125 -90t164.5 -33.5q92 0 176 34.5t137 100.5l80 -55q-146 -180 -393 -180q-120 0 -218.5 48t-159 126.5t-93 173.5t-31.5 194zM223 578 h789q-9 166 -117 269.5t-270 106.5q-117 -1 -204.5 -52t-135 -133.5t-62.5 -190.5zM393 1272v127h125v-127h-125zM748 1272v127h124v-127h-124z" />
<glyph unicode="&#xec;" horiz-adv-x="499" d="M59 1419h127l123 -213h-94zM197 0v1038h104v-1038h-104z" />
<glyph unicode="&#xed;" horiz-adv-x="499" d="M197 0h104v1038h-104v-1038zM197 1210l122 213h127l-155 -213h-94z" />
<glyph unicode="&#xee;" horiz-adv-x="499" d="M8 1214l172 205h142l167 -205h-98l-141 154l-144 -154h-98zM197 0v1038h104v-1038h-104z" />
<glyph unicode="&#xef;" horiz-adv-x="499" d="M39 1288v127h125v-127h-125zM197 0v1038h104v-1038h-104zM344 1288v127h125v-127h-125z" />
<glyph unicode="&#xf0;" horiz-adv-x="1263" d="M127 471q2 87 35 169t92.5 149t155 107.5t211.5 39.5q238 -3 374 -174l15 2q-29 154 -96 252.5t-193 179.5l-268 -160l-43 62l233 145q-146 79 -334 76l10 94q134 -3 231 -27.5t195 -85.5l197 123l43 -63l-178 -107q178 -127 247.5 -314.5t61.5 -463.5q-1 -76 -20 -146.5 t-59 -134t-97 -110.5t-139 -74.5t-180 -27.5q-120 0 -218 43t-157.5 113.5t-90 156.5t-28.5 176zM233 469q-1 -55 13 -109.5t45.5 -105t76.5 -89.5t110.5 -62t142.5 -23q96 0 174.5 35.5t125.5 93t72 125.5t23 137q-2 68 -27.5 132t-73 117t-124 85.5t-170.5 32.5 q-75 0 -139 -21.5t-108.5 -57.5t-76.5 -84t-47.5 -100t-16.5 -106z" />
<glyph unicode="&#xf1;" horiz-adv-x="1269" d="M197 0v1038h92l14 -88q54 52 132 80.5t157 28.5q136 -2 246.5 -55.5t178.5 -159.5t68 -248v-596h-106v596q-1 105 -56 188t-143 128t-192 49q-184 3 -285 -119v-842h-106zM340 1288q72 119 170 119q63 0 129 -51q54 -38 108 -26.5t91 69.5l51 -41q-28 -56 -77.5 -86 t-103 -28.5t-94.5 32.5q-137 102 -221 -27q-5 3 -53 39z" />
<glyph unicode="&#xf2;" horiz-adv-x="1257" d="M113 518q0 145 66 269t185 199t263 75q145 0 264.5 -75t185.5 -199t66 -269t-66 -269t-185.5 -199t-264.5 -75q-144 0 -263 75t-185 199t-66 269zM219 518q0 -103 35.5 -190t93.5 -142.5t130.5 -86.5t148.5 -31q77 0 149.5 31t131 86.5t93.5 142.5t35 190t-35 189 t-93.5 141t-131 85t-149.5 30q-76 0 -148.5 -30t-130.5 -85t-93.5 -141t-35.5 -189zM451 1417h127l122 -213h-94z" />
<glyph unicode="&#xf3;" horiz-adv-x="1257" d="M113 518q0 -145 66 -269t185 -199t263 -75q145 0 264.5 75t185.5 199t66 269t-66 269t-185.5 199t-264.5 75q-144 0 -263 -75t-185 -199t-66 -269zM219 518q0 103 35.5 189t93.5 141t130.5 85t148.5 30q77 0 149.5 -30t131 -85t93.5 -141t35 -189t-35 -190t-93.5 -142.5 t-131 -86.5t-149.5 -31q-76 0 -148.5 31t-130.5 86.5t-93.5 142.5t-35.5 190zM582 1202l123 213h126l-155 -213h-94z" />
<glyph unicode="&#xf4;" horiz-adv-x="1257" d="M113 518q0 145 66 269t185 199t263 75q145 0 264.5 -75t185.5 -199t66 -269t-66 -269t-185.5 -199t-264.5 -75q-144 0 -263 75t-185 199t-66 269zM219 518q0 -103 35.5 -190t93.5 -142.5t130.5 -86.5t148.5 -31q77 0 149.5 31t131 86.5t93.5 142.5t35 190t-35 189 t-93.5 141t-131 85t-149.5 30q-76 0 -148.5 -30t-130.5 -85t-93.5 -141t-35.5 -189zM395 1206l172 205h142l168 -205h-99l-141 160l-143 -160h-99z" />
<glyph unicode="&#xf5;" horiz-adv-x="1257" d="M113 518q0 145 66 269t185 199t263 75q145 0 264.5 -75t185.5 -199t66 -269t-66 -269t-185.5 -199t-264.5 -75q-144 0 -263 75t-185 199t-66 269zM219 518q0 -103 35.5 -190t93.5 -142.5t130.5 -86.5t148.5 -31q77 0 149.5 31t131 86.5t93.5 142.5t35 190t-35 189 t-93.5 141t-131 85t-149.5 30q-76 0 -148.5 -30t-130.5 -85t-93.5 -141t-35.5 -189zM358 1290q113 196 289 68q53 -38 104.5 -27t86.5 68l51 -39q-43 -88 -118.5 -109.5t-147.5 35.5q-129 99 -213 -35q-22 14 -52 39z" />
<glyph unicode="&#xf6;" horiz-adv-x="1257" d="M113 518q0 145 66 269t185 199t263 75q145 0 264.5 -75t185.5 -199t66 -269t-66 -269t-185.5 -199t-264.5 -75q-144 0 -263 75t-185 199t-66 269zM219 518q0 -103 35.5 -190t93.5 -142.5t130.5 -86.5t148.5 -31q77 0 149.5 31t131 86.5t93.5 142.5t35 190t-35 189 t-93.5 141t-131 85t-149.5 30q-76 0 -148.5 -30t-130.5 -85t-93.5 -141t-35.5 -189zM391 1284v127h125v-127h-125zM745 1284v127h125v-127h-125z" />
<glyph unicode="&#xf7;" horiz-adv-x="1267" d="M174 625v100h913v-100h-913zM553 223v131h133v-131h-133zM553 1008v127h131v-127h-131z" />
<glyph unicode="&#xf8;" horiz-adv-x="1247" d="M123 518q0 145 63 263.5t177.5 187.5t259.5 69q117 0 237 -57l90 149h101l-121 -194q92 -76 143 -184.5t51 -233.5q0 -145 -62.5 -264t-178 -188.5t-260.5 -69.5q-110 0 -240 55l-88 -141h-100l116 188q-89 75 -138.5 185.5t-49.5 234.5zM229 518q0 -109 30.5 -187.5 t102.5 -150.5l447 723q-93 41 -186 41q-77 0 -146.5 -27t-125.5 -78.5t-89 -134.5t-33 -186zM428 129q98 -43 195 -43q77 0 148 28t127.5 80.5t90 136.5t33.5 187q0 206 -141 338z" />
<glyph unicode="&#xf9;" horiz-adv-x="1267" d="M182 434v604h107v-604q1 -83 32.5 -150t86 -110t124 -67t148.5 -27q184 -3 285 119v839h106v-1038h-92l-14 92q-54 -52 -133 -81t-158 -29q-137 2 -246.5 52.5t-177.5 154t-68 245.5zM461 1423h127l123 -213h-95z" />
<glyph unicode="&#xfa;" horiz-adv-x="1267" d="M182 434q0 -142 68 -245.5t177.5 -154t246.5 -52.5q79 0 158 29t133 81l14 -92h92v1038h-106v-839q-101 -122 -285 -119q-79 3 -148.5 27t-124 67t-86 110t-32.5 150v604h-107v-604zM547 1206l123 213h127l-156 -213h-94z" />
<glyph unicode="&#xfb;" horiz-adv-x="1267" d="M182 434v604h107v-604q1 -83 32.5 -150t86 -110t124 -67t148.5 -27q184 -3 285 119v839h106v-1038h-92l-14 92q-54 -52 -133 -81t-158 -29q-137 2 -246.5 52.5t-177.5 154t-68 245.5zM387 1210l172 205h141l168 -205h-98l-141 160l-144 -160h-98z" />
<glyph unicode="&#xfc;" horiz-adv-x="1267" d="M182 434v604h107v-604q1 -83 32.5 -150t86 -110t124 -67t148.5 -27q184 -3 285 119v839h106v-1038h-92l-14 92q-54 -52 -133 -81t-158 -29q-137 2 -246.5 52.5t-177.5 154t-68 245.5zM395 1294v127h125v-127h-125zM750 1294v127h124v-127h-124z" />
<glyph unicode="&#xfd;" horiz-adv-x="1040" d="M47 1038l424 -1042l-59 -158q-26 -66 -69.5 -95t-129.5 -26v-88h33q97 0 163.5 38t102.5 136l481 1235h-114l-351 -932l-366 932h-115zM436 1206l123 213h127l-156 -213h-94z" />
<glyph unicode="&#xfe;" horiz-adv-x="1177" d="M197 -401v1835h104v-482l2 -12q107 104 266 104q134 0 239 -57.5t159.5 -149.5t80.5 -204t2 -224.5t-76.5 -205.5t-154.5 -152t-233 -61q-192 -4 -285 114v-505h-104zM303 223q55 -74 118.5 -105.5t143.5 -31.5q92 2 167 39t122 96t73 134.5t27.5 154.5t-21.5 155.5 t-66.5 137.5t-115.5 101t-161 46q-183 6 -287 -119v-608z" />
<glyph unicode="&#xff;" horiz-adv-x="1040" d="M47 1038h115l366 -932l351 932h114l-481 -1235q-36 -98 -102.5 -136t-163.5 -38h-33v88q86 -3 129.5 26t69.5 95l59 158zM299 1276v127h125v-127h-125zM653 1276v127h125v-127h-125z" />
<glyph unicode="&#x152;" horiz-adv-x="1939" d="M150 715q0 117 32 227.5t94.5 203t147 162.5t197 109t237.5 39q90 0 180 -22v2h748v-107h-635v-557h627v-104h-629v-559h637v-107h-748q-86 -21 -176 -21.5t-176.5 20t-166 60t-147 102.5t-117 142.5t-77.5 184.5t-28 225zM260 715q0 -123 33.5 -227.5t91 -177.5 t134.5 -125t163.5 -75.5t177.5 -24t178 25.5v1212q-86 26 -177.5 26t-178 -24t-163.5 -77t-134.5 -126.5t-91 -178.5t-33.5 -228z" />
<glyph unicode="&#x153;" horiz-adv-x="2152" d="M115 518q0 144 67 268.5t187 199.5t264 75q154 0 281.5 -90.5t185.5 -233.5q49 140 167.5 227.5t282.5 88.5q210 1 346 -142.5t136 -355.5q0 -14 -4 -68h-879v-6q6 -77 36 -148t79.5 -127.5t124.5 -90t163 -33.5q92 0 176.5 34.5t137.5 100.5l80 -55q-146 -180 -394 -180 q-162 0 -278 90t-172 235q-59 -149 -186 -240.5t-283 -91.5q-144 0 -264 75t-187 199.5t-67 268.5zM221 518q0 -103 36 -190t95 -142.5t132 -86.5t149 -31q77 0 151.5 31t135.5 86.5t98 142.5t37 190v10v11q-4 98 -42.5 180.5t-98.5 134.5t-133 80.5t-148 28.5 q-76 0 -149 -30t-132 -85t-95 -141t-36 -189zM1147 578h790q-9 166 -117 269.5t-270 106.5q-117 -1 -204.5 -52t-135.5 -133.5t-63 -190.5z" />
<glyph unicode="&#x178;" horiz-adv-x="1214" d="M68 1434h120l418 -758l420 758h121l-488 -861v-573h-108v575zM369 1544v127h125v-127h-125zM723 1544v127h125v-127h-125z" />
<glyph unicode="&#x2c6;" horiz-adv-x="1050" d="M287 1546l172 205h141l168 -205h-98l-142 160l-143 -160h-98z" />
<glyph unicode="&#x2dc;" horiz-adv-x="1011" d="M221 1614q72 119 170 119q61 0 129 -52q54 -38 108 -26.5t91 69.5l51 -41q-27 -53 -69.5 -82.5t-90.5 -29.5q-67 0 -114 39q-134 100 -222 -35q-5 3 -53 39z" />
<glyph unicode="&#x2000;" horiz-adv-x="900" />
<glyph unicode="&#x2001;" horiz-adv-x="1800" />
<glyph unicode="&#x2002;" horiz-adv-x="900" />
<glyph unicode="&#x2003;" horiz-adv-x="1800" />
<glyph unicode="&#x2004;" horiz-adv-x="600" />
<glyph unicode="&#x2005;" horiz-adv-x="450" />
<glyph unicode="&#x2006;" horiz-adv-x="300" />
<glyph unicode="&#x2007;" horiz-adv-x="300" />
<glyph unicode="&#x2008;" horiz-adv-x="225" />
<glyph unicode="&#x2009;" horiz-adv-x="360" />
<glyph unicode="&#x200a;" horiz-adv-x="100" />
<glyph unicode="&#x2010;" horiz-adv-x="946" d="M225 588v102h500v-102h-500z" />
<glyph unicode="&#x2011;" horiz-adv-x="946" d="M225 588v102h500v-102h-500z" />
<glyph unicode="&#x2012;" horiz-adv-x="946" d="M225 588v102h500v-102h-500z" />
<glyph unicode="&#x2013;" horiz-adv-x="1435" d="M225 524v99h989v-99h-989z" />
<glyph unicode="&#x2014;" horiz-adv-x="1783" d="M225 524v90h1356v-90h-1356z" />
<glyph unicode="&#x2018;" horiz-adv-x="493" d="M139 1057l144 391h84l-105 -391h-123z" />
<glyph unicode="&#x2019;" horiz-adv-x="464" d="M137 1059l103 391h116l-139 -391h-80z" />
<glyph unicode="&#x201a;" horiz-adv-x="503" d="M92 -242l121 402h127l-156 -402h-92z" />
<glyph unicode="&#x201c;" horiz-adv-x="741" d="M137 1044l146 404h84l-111 -404h-119zM426 1044l145 404h84l-110 -404h-119z" />
<glyph unicode="&#x201d;" horiz-adv-x="765" d="M137 1059l103 391h110l-141 -391h-72zM428 1059l102 391h111l-137 -391h-76z" />
<glyph unicode="&#x201e;" horiz-adv-x="765" d="M92 -242l121 402h125l-158 -402h-88zM348 -242l121 402h123l-156 -402h-88z" />
<glyph unicode="&#x2022;" horiz-adv-x="804" d="M150 596q0 106 71.5 180t175.5 74q103 0 174.5 -74t71.5 -180t-71.5 -180t-174.5 -74q-104 0 -175.5 74t-71.5 180z" />
<glyph unicode="&#x2026;" horiz-adv-x="1259" d="M197 -2v152h129v-152h-129zM555 -2v152h129v-152h-129zM915 -2v152h129v-152h-129z" />
<glyph unicode="&#x202f;" horiz-adv-x="360" />
<glyph unicode="&#x2039;" horiz-adv-x="727" d="M135 578l320 401h123l-322 -401l322 -400h-123z" />
<glyph unicode="&#x203a;" horiz-adv-x="737" d="M154 178l321 400l-321 401h122l320 -401l-320 -400h-122z" />
<glyph unicode="&#x205f;" horiz-adv-x="450" />
<glyph unicode="&#x20ac;" horiz-adv-x="1372" d="M100 571q13 59 21 93h112q-3 48 -1.5 73.5t5 46t3.5 21.5h-134q3 20 11.5 47t11.5 43h117q28 113 86 210.5t142.5 174t202.5 120.5t255 44t276 -58l-49 -94q-101 49 -227 49q-460 -5 -574 -446h607q-3 -20 -11.5 -47t-11.5 -43h-606l-4 -141h575q-3 -20 -10 -49.5 t-10 -43.5h-535q44 -219 194.5 -349t385.5 -130q148 0 272 62q10 -20 23 -43.5t22 -40.5q-153 -78 -317 -78q-142 0 -263.5 46.5t-206.5 127.5t-141.5 184t-80.5 221h-140z" />
<glyph unicode="&#x2122;" horiz-adv-x="1818" d="M92 1346v88h541v-88h-227v-701h-87v701h-227zM821 645v789h109l303 -566l307 566h105v-789h-82v668l-291 -539h-78l-291 539v-668h-82z" />
<glyph unicode="&#x25fc;" horiz-adv-x="1034" d="M0 0v1034h1034v-1034h-1034z" />
</font>
</defs>
</svg>
